<?xml version="1.0" encoding="iso-8859-1"?>
<!-- Uploaded to: SVG Repo, www.svgrepo.com, Generator: SVG Repo Mixer Tools -->
<svg xmlns="http://www.w3.org/2000/svg" xmlns:xlink="http://www.w3.org/1999/xlink" version="1.1" id="Capa_1"  viewBox="0 0 455 455" xml:space="preserve" width="512" height="512">
<g>
	<rect x="8.75" y="33.22" style="fill:#98D9D5;" width="30" height="421.78"/>
	<path style="fill:#FFCC75;" d="M8.75,315.941c-4.143,0-7.5,3.358-7.5,7.5s3.357,7.5,7.5,7.5h60l10-15H8.75z"/>
	<path style="fill:#FFCC75;" d="M8.75,70c-4.143,0-7.5,3.358-7.5,7.5S4.607,85,8.75,85h70l-10-15H8.75z"/>
	<path style="fill:#FF6E1D;" d="M439.75,229.291c0-32.616,14-32.616,14-65.231h-132.5l-47.03,237.421   c0,12.99,10.53,23.52,23.52,23.52L453.75,425c0-32.619-14-32.619-14-65.237s14-32.619,14-65.237   C453.75,261.908,439.75,261.908,439.75,229.291z"/>
	<path style="fill:#BD1515;" d="M321.25,330.941c0,0,0,10.53,0,23.51c0,12.99-10.53,23.52-23.51,23.52   c-12.99,0-23.52,10.53-23.52,23.51v-70.54H321.25z"/>
	<path style="fill:#F2484B;" d="M297.74,70H68.75v260.941h228.99c12.98,0,23.51,10.53,23.51,23.51V93.51   C321.25,80.53,310.72,70,297.74,70z"/>
	<circle style="fill:#BD1515;" cx="274.22" cy="288.441" r="7.5"/>
	<circle style="fill:#BD1515;" cx="244.22" cy="268.441" r="7.5"/>
	<circle style="fill:#6DA8D6;" cx="23.75" cy="20" r="20"/>
</g>















</svg>